<svg xmlns="http://www.w3.org/2000/svg" xmlns:xlink="http://www.w3.org/1999/xlink" enable-background="new 0 0 32 32" version="1.1" xml:space="preserve" width="32" height="32" style=""><rect id="backgroundrect" width="100%" height="100%" x="0" y="0" fill="none" stroke="none"/><g class="currentLayer" style=""><title>Layer 1</title><path d="M29.946,15.675C27.954,9.888,22.35,6,16,6S4.046,9.888,2.054,15.675c-0.072,0.21-0.072,0.44,0,0.65  C4.046,22.112,9.65,26,16,26s11.954-3.888,13.946-9.675C30.018,16.115,30.018,15.885,29.946,15.675z M16,22c-3.309,0-6-2.691-6-6  s2.691-6,6-6s6,2.691,6,6S19.309,22,16,22z" id="XMLID_320_" class="selected" fill="#e8aaff" fill-opacity="1"/></g></svg>